{"title":"The.Innkeepers.2011.BRRip.XviD-RLF","uid":7167242,"size":743013936,"categoryP":"video","categoryS":"movies","magnet":"?xt=urn:btih:9520e2169e34c8578f659e44eee4566afd39d205&amp;dn=The.Innkeepers.2011.BRRip.XviD-RLF&amp;tr=udp%3A%2F%2Ftracker.openbittorrent.com%3A80&amp;tr=udp%3A%2F%2Fopen.demonii.com%3A1337&amp;tr=udp%3A%2F%2Ftracker.coppersurfer.tk%3A6969&amp;tr=udp%3A%2F%2Fexodus.desync.com%3A6969","seeders":1,"leechers":1,"uploader":"rlf-rls","files":-1,"time":1333820197,"description":"The.Innkeepers.2011.BRRip.XviD-RLF\n~~~~~~~~~~~~~~~~~~~~~~~~~~~~~~~~~~  \n                                          \n\nGENERAL:\n\nComplete name                    : rlf-innkeepers.avi\nFormat                           : AVI\nFormat/Info                      : Audio Video Interleave\nFile size                        : 699 MiB\nDuration                         : 1h 41mn\nOverall bit rate                 : 965 Kbps\nLanguage                         : English\nSubs                             : N/A \nEncoder                          : Ralf\n\nVideo:\n\n                     \nFormat                           : MPEG-4 Visual\nFormat profile                   : Advanced Simple@L5\nFormat settings, BVOP            : 2\nFormat settings, QPel            : No\nFormat settings, GMC             : No warppoints\nFormat settings, Matrix          : H.263\nMuxing mode                      : Packed bitstream\nCodec ID                         : XVID\nDuration                         : 1h 41mn\nBit rate                         : 827 Kbps\nWidth                            : 688 pixels\nHeight                           : 288 pixels\nDisplay aspect ratio             : 2.35:1\nFrame rate                       : 23.976 fps\nColor space                      : YUV\nChroma subsampling               : 4:2:0\nBit depth                        : 8 bits\nScan type                        : Progressive\nBits/(Pixel Frame)               : 0.174\nStream size                      : 600 MiB (86%)      \nWriting library                  : XviD 64\n\nAudio:\n\n\nFormat                           : MPEG Audio\nCodec ID/Hint                    : MP3\nDuration                         : 1h 41mn\nBit rate mode                    : Constant\nBit rate                         : 128 Kbps\nChannel(s)                       : 2 channels\nSampling rate                    : 48.0 KHz\nStream size                      : 92.8 MiB (13%)\nAlignment                        : Split accross interleaves\nInterleave, duration             : 42 ms (1.00 video frame)\nInterleave, preload duration     : 500 ms\n                   \n\nMOVIE INFO:\n\n\nDuring the final days at the Yankee Pedlar Inn, two employees determined to \nreveal the hotel's haunted past begin to experience disturbing events as old \nguests check in for a stay. \n                                           &lt;a href=&quot;\nhttp://www.imdb.com/title/tt1594562/&quot; rel=&quot;nofollow&quot; target=&quot;_NEW&quot;&gt;\nhttp://www.imdb.com/title/tt1594562/&lt;/a&gt; &lt;a href=&quot;\nhttp://www.filmweb.pl/film/Innkeepers,+The-2011-560890&quot; rel=&quot;nofollow&quot; target=&quot;_NEW&quot;&gt;\nhttp://www.filmweb.pl/film/Innkeepers,+The-2011-560890&lt;/a&gt;\n                                               \nSOURCE:\n\nHDChina's 1080p.BluRay.x264.DTS (Very nice source HDC THX)\n\n\nRESPECT:\n\nReal P2P Encoders and all Scene massive\n\nLike AMi says... &quot;sweetest downfall&quot;\n","torrent":{"xt":"urn:btih:9520e2169e34c8578f659e44eee4566afd39d205","amp;dn":"The.Innkeepers.2011.BRRip.XviD-RLF","amp;tr":["udp%3A%2F%2Ftracker.openbittorrent.com%3A80","udp%3A%2F%2Fopen.demonii.com%3A1337","udp%3A%2F%2Ftracker.coppersurfer.tk%3A6969","udp%3A%2F%2Fexodus.desync.com%3A6969"],"infoHash":"9520e2169e34c8578f659e44eee4566afd39d205","infoHashBuffer":{"type":"Buffer","data":[149,32,226,22,158,52,200,87,143,101,158,68,238,228,86,106,253,57,210,5]},"announce":[],"urlList":[]}}